# AST/ASF file generated using VICON BodyLanguage
# -----------------------------------------------
:version 1.10
:name VICON
:units
  mass 1.0
  length 0.45
  angle deg
:documentation
   .ast/.asf automatically generated from VICON data using
   VICON BodyBuilder and BodyLanguage model FoxedUp or BRILLIANT.MOD
:root
   order TX TY TZ RX RY RZ
   axis XYZ
   position 0 0 0  
   orientation 0 0 0 
:bonedata
  begin
     id 1 
     name lhipjoint
     direction 0.677091 -0.635792 0.370561 
     length 2.74323 
     axis 0 0 0  XYZ
  end
  begin
     id 2 
     name lfemur
     direction 0.34202 -0.939693 0  
     length 7.44995  
     axis 0 0 20  XYZ
    dof rx ry rz
    limits (-160.0 20.0)
           (-70.0 70.0)
           (-60.0 70.0)
  end
  begin
     id 3 
     name ltibia
     direction 0.34202 -0.939693 0   
     length 7.34467   
     axis 0 0 20   XYZ
    dof rx
    limits (-10.0 170.0)
  end
  begin
     id 4 
     name lfoot
     direction 0.101953 -0.280114 0.954537   
     length 1.72105   
     axis -90 7.62852e-016 20   XYZ
    dof rx rz
    limits (-45.0 90.0)
           (-70.0 20.0)
  end
  begin
     id 5 
     name ltoes
     direction 1.53537e-011 -4.21915e-011 1   
     length 0.865872   
     axis -90 7.62852e-016 20   XYZ
    dof rx
    limits (-90.0 20.0)
  end
  begin
     id 6 
     name rhipjoint
     direction -0.695735 -0.620586 0.361699   
     length 2.81045  
     axis 0 0 0  XYZ 
  end
  begin
     id 7 
     name rfemur
     direction -0.34202 -0.939693 0   
     length 7.29387   
     axis 0 0 -20   XYZ
    dof rx ry rz
    limits (-160.0 20.0)
           (-70.0 70.0)
           (-70.0 60.0)
  end
  begin
     id 8 
     name rtibia
     direction -0.34202 -0.939693 0   
     length 7.44935   
     axis 0 0 -20   XYZ
    dof rx
    limits (-10.0 170.0)
 end
 begin
     id 9 
     name rfoot
     direction -0.104163 -0.286184 0.952496   
     length 1.77731  
     axis -90 -7.62852e-016 -20   XYZ
    dof rx rz
    limits (-45.0 90.0)
           (-20.0 70.0)
  end
  begin
     id 10 
     name rtoes
     direction -1.5355e-011 -4.21888e-011 1   
     length 0.892424   
     axis -90 -7.62852e-016 -20   XYZ
    dof rx
    limits (-90.0 20.0)
  end
  begin
     id 11 
     name lowerback
     direction 0.0100202 0.997226 -0.0737589   
     length 2.16892   
     axis 0 0 0   XYZ
    dof rx ry rz
    limits (-20.0 45.0)
           (-30.0 30.0)
           (-30.0 30.0)
  end
  begin
     id 12 
     name upperback
     direction 0.00432398 0.999988 -0.00215019   
     length 2.17326   
     axis 0 0 0   XYZ
    dof rx ry rz
    limits (-20.0 45.0)
           (-30.0 30.0)
           (-30.0 30.0)
  end
  begin
     id 13 
     name thorax
     direction -0.00195047 0.999485 0.0320434   
     length 2.18139   
     axis 0 0 0   XYZ
    dof rx ry rz
    limits (-20.0 45.0)
           (-30.0 30.0)
           (-30.0 30.0)
  end
  begin
     id 14 
     name lowerneck
     direction 0.00782762 0.986241 0.165128   
     length 1.88415   
     axis 0 0 0   XYZ
    dof rx ry rz
    limits (-20.0 45.0)
           (-30.0 30.0)
           (-30.0 30.0)
  end
  begin
     id 15 
     name upperneck
     direction 0.00988667 0.981098 -0.193258   
     length 1.9242   
     axis 0 0 0   XYZ
    dof rx ry rz
    limits (-20.0 45.0)
           (-30.0 30.0)
           (-30.0 30.0)
  end
  begin
     id 16
     name head
     direction 0.00252199 0.996513 -0.0833958  
     length 1.93887  
     axis 0 0 0   XYZ
    dof rx ry rz
    limits (-20.0 45.0)
           (-30.0 30.0)
           (-30.0 30.0)
  end
  begin
     id 17 
     name lclavicle
     direction 0.929492 0.368193 -0.0218667  
     length 3.5955  
     axis 0 0 0   XYZ
    dof ry rz
    limits (-20.0 10.0)
           (0.0 20.0)
  end
  begin
     id 18 
     name lhumerus
     direction 1 -4.48972e-011 1.41911e-027   
     length 5.2795   
     axis 180 -30 -90   XYZ
    dof rx ry rz
    limits (-60.0 90.0)
           (-90.0 90.0)
           (-90.0 90.0)
  end
  begin
     id 19
     name lradius
     direction 1 -4.48963e-011 7.05772e-027   
     length 3.53504   
     axis 180 -30 -90   XYZ
    dof rx
    limits (-10.0 170.0)
  end
  begin
     id 20
     name lwrist
     direction 1 -4.48957e-011 9.54866e-027   
     length 1.76752   
     axis -7.69462e-015 90 90   XYZ
    dof ry
    limits (-180.0 0.0)
 end
  begin
     id 21 
     name lhand
     direction 1 -4.48979e-011 1.90973e-026   
     length 0.667948   
     axis -1.21857e-014 90 90   XYZ
    dof rx rz
    limits (-90.0 90.0)
           (-45.0 45.0)
  end
  begin
     id 22 
     name lfingers
     direction 1 -4.48987e-011 3.81946e-026   
     length 0.538517   
     axis -2.43714e-014 90 90   XYZ
    dof rx
    limits (0.0 90.0)
  end
  begin
     id 23
     name lthumb
     direction 0.707107 -6.34962e-011 0.707107   
     length 0.773206   
     axis -90 45 2.85299e-015   XYZ
    dof rx rz
    limits (-45.0 45.0)
           (-45.0 45.0)
  end
  begin
     id 24 
     name rclavicle
     direction -0.898763 0.414256 -0.143584   
     length 3.5176  
     axis 0 0 0   XYZ 
    dof ry rz
    limits (-10.0 20.0)
           (-20.0 0.0)
  end
  begin
     id 25 
     name rhumerus
     direction -1 -4.48971e-011 1.129e-027  
     length 5.25035   
     axis 180 30 90   XYZ
    dof rx ry rz
    limits (-90.0 60.0)
           (-90.0 90.0)
           (-90.0 90.0)
  end
  begin
     id 26 
     name rradius
     direction -1 -4.48955e-011 6.34664e-027   
     length 3.58884   
     axis 180 30 90   XYZ
    dof rx
    limits (-10.0 170.0)
  end
  begin
     id 27 
     name rwrist
     direction -1 -4.48966e-011 9.54866e-027   
     length 1.79442   
     axis -7.69462e-015 -90 -90   XYZ
    dof ry
    limits (-180.0 0.0)
  end
  begin
     id 28
     name rhand
     direction -1 -4.48973e-011 1.90973e-026   
     length 0.779235   
     axis -1.21857e-014 -90 -90   XYZ
    dof rx rz
    limits (-90.0 90.0)
           (-45.0 45.0)
  end
  begin
     id 29
     name rfingers
     direction -1 -4.48984e-011 3.81946e-026   
     length 0.62824   
     axis -2.43714e-014 -90 -90   XYZ
    dof rx
    limits (0.0 90.0)
  end
  begin
     id 30
     name rthumb
     direction -0.707107 -6.34968e-011 0.707107   
     length 0.90203   
     axis -90 -45 -2.85299e-015   XYZ
    dof rx rz
    limits (-45.0 45.0)
           (-45.0 45.0)
  end
:hierarchy
  begin
    root lhipjoint rhipjoint lowerback
    lhipjoint lfemur
    lfemur ltibia
    ltibia lfoot
    lfoot ltoes
    rhipjoint rfemur
    rfemur rtibia
    rtibia rfoot
    rfoot rtoes
    lowerback upperback
    upperback thorax
    thorax lowerneck lclavicle rclavicle
    lowerneck upperneck
    upperneck head
    lclavicle lhumerus
    lhumerus lradius
    lradius lwrist
    lwrist lhand lthumb
    lhand lfingers
    rclavicle rhumerus
    rhumerus rradius
    rradius rwrist
    rwrist rhand rthumb
    rhand rfingers
  end

#!OML:ASF I:\Random Stuff\random\construction\7_22_03\Session 2\subj1.ASF
:FULLY-SPECIFIED
:DEGREES
62
root -9.66983 17.6439 2.19186 -1.45704 72.3913 -9.08998
lowerback 1.35555 0.660629 1.52966
upperback -2.69561 0.966192 0.548711
thorax -3.51519 0.456093 -0.335401
lowerneck -25.3973 -0.218886 -0.314258
upperneck 31.149 -1.45192 4.42798
head 15.2101 0.160128 1.66084
rclavicle 3.16813e-016 4.77083e-015
rhumerus -37.0733 -9.86999 -77.8647
rradius 27.0064
rwrist 3.71541
rhand -17.0163 20.7838
rfingers 7.12502
rthumb 9.21961 -8.9946
lclavicle 3.16813e-016 4.77083e-015
lhumerus -34.8246 7.89048 80.6592
lradius 29.1631
lwrist 30.3535
lhand -17.9406 57.9914
lfingers 7.12502
lthumb -171.672 -92.1928
rfemur -8.78587 11.1353 25.2217
rtibia 14.6075
rfoot -10.5352 -28.073
rtoes -3.47436
lfemur -16.6302 -16.3133 -11.4467
ltibia 26.3311
lfoot -15.7175 10.2385
ltoes -36.0003
63
root -9.67321 17.6477 2.18878 -1.4485 72.5073 -9.16018
lowerback 1.32038 0.688565 1.49689
upperback -2.70639 1.00156 0.531729
thorax -3.50607 0.474476 -0.335637
lowerneck -25.4397 -0.090045 -0.305229
upperneck 31.194 -1.29619 4.51698
head 15.236 0.242127 1.73028
rclavicle -2.20092e-014 -7.95139e-016
rhumerus -36.992 -10.9549 -77.0909
rradius 25.8712
rwrist 4.27579
rhand -17.3437 20.2988
rfingers 7.12502
rthumb 8.90366 -9.49329
lclavicle -2.20092e-014 -7.95139e-016
lhumerus -34.4404 8.35484 80.2479
lradius 28.892
lwrist 29.9951
lhand -17.9092 57.7145
lfingers 7.12502
lthumb -171.642 -92.4709
rfemur -8.81729 11.0656 25.2074
rtibia 14.4686
rfoot -10.4239 -28.0934
rtoes -3.34487
lfemur -16.8067 -16.8174 -11.3831
ltibia 26.3999
lfoot -15.6352 10.6514
ltoes -36.0897
64
root -9.67755 17.6502 2.18383 -1.51747 72.6815 -9.28065
lowerback 1.31466 0.720998 1.53063
upperback -2.69772 1.04498 0.511961
thorax -3.49224 0.495009 -0.376548
lowerneck -25.543 -0.00588353 -0.249094
upperneck 31.3104 -1.17982 4.46841
head 15.3078 0.293995 1.72833
rclavicle 1.75614e-014 -6.95746e-016
rhumerus -36.9331 -12.1842 -76.1077
rradius 24.7038
rwrist 5.31736
rhand -17.2975 20.1089
rfingers 7.12502
rthumb 8.94826 -9.6813
lclavicle 1.75614e-014 -6.95746e-016
lhumerus -34.0734 8.72645 79.8872
lradius 28.6535
lwrist 29.5865
lhand -17.9677 57.9177
lfingers 7.12502
lthumb -171.699 -92.2654
rfemur -8.8423 10.9313 25.2067
rtibia 14.386
rfoot -10.3076 -28.1196
rtoes -3.56695
lfemur -16.9533 -17.4343 -11.3094
ltibia 26.439
lfoot -15.5416 11.1015
ltoes -35.9842
65
root -9.6811 17.6512 2.17754 -1.6914 72.8916 -9.48913
lowerback 1.3345 0.74291 1.63833
upperback -2.70109 1.07744 0.489905
thorax -3.50418 0.507855 -0.461206
lowerneck -25.5452 0.0402707 -0.154274
upperneck 31.3935 -1.09586 4.31585
head 15.3417 0.319957 1.66702
rclavicle -4.35214e-014 2.38542e-015
rhumerus -36.9634 -13.3292 -75.0896
rradius 23.5446
rwrist 6.45652
rhand -17.5476 20.1121
rfingers 7.12502
rthumb 8.7069 -9.6883
lclavicle -4.35214e-014 2.38542e-015
lhumerus -33.8549 9.04756 79.5075
lradius 28.5124
lwrist 29.2675
lhand -18.1852 58.3652
lfingers 7.12502
lthumb -171.908 -91.8097
rfemur -8.86887 10.7565 25.2321
rtibia 14.364
rfoot -10.1805 -28.1537
rtoes -4.15423
lfemur -17.072 -18.1866 -11.2088
ltibia 26.4559
lfoot -15.4624 11.6473
ltoes -35.9896
66
root -9.68557 17.6521 2.17108 -1.67808 73.1171 -9.54475
lowerback 1.33311 0.754319 1.70939
upperback -2.7403 1.0948 0.453159
thorax -3.54175 0.513747 -0.539819
lowerneck -25.4283 0.0627707 -0.12258
upperneck 31.3876 -1.04181 4.23703
head 15.3099 0.334663 1.63795
rclavicle 9.44227e-016 -5.96354e-015
rhumerus -37.1217 -14.4166 -74.0001
rradius 22.4567
rwrist 7.67146
rhand -17.6227 20.1549
rfingers 7.12502
rthumb 8.63448 -9.6485
lclavicle 9.44227e-016 -5.96354e-015
lhumerus -33.7238 9.28337 79.095
lradius 28.3965
lwrist 29.1831
lhand -18.3952 58.6083
lfingers 7.12502
lthumb -172.111 -91.5589
rfemur -8.98329 10.5727 25.1931
rtibia 14.4122
rfoot -10.1704 -28.1879
rtoes -4.32576
lfemur -17.2447 -18.5419 -11.1672
ltibia 26.4575
lfoot -15.3752 11.8076
ltoes -36.2512
67
root -9.69299 17.654 2.16614 -1.52639 73.3238 -9.50074
lowerback 1.31516 0.753111 1.69973
upperback -2.78087 1.09338 0.442465
thorax -3.57359 0.512955 -0.54543
lowerneck -25.3852 0.0840841 -0.158081
upperneck 31.4254 -0.98242 4.21295
head 15.3156 0.352619 1.64671
rclavicle -8.13154e-015 1.39149e-015
rhumerus -37.2974 -15.4169 -72.852
rradius 21.4879
rwrist 8.97942
rhand -17.3353 20.0727
rfingers 7.12502
rthumb 8.91175 -9.71905
lclavicle -8.13154e-015 1.39149e-015
lhumerus -33.6504 9.53074 78.6593
lradius 28.3919
lwrist 29.1957
lhand -18.3645 58.6964
lfingers 7.12502
lthumb -172.082 -91.472
rfemur -9.19816 10.4177 25.1208
rtibia 14.5425
rfoot -10.2251 -28.2248
rtoes -4.35627
lfemur -17.4738 -18.2594 -11.1729
ltibia 26.4379
lfoot -15.2939 11.3607
ltoes -36.4699
68
root -9.70151 17.6551 2.1635 -1.31082 73.5042 -9.40425
lowerback 1.28661 0.752386 1.62817
upperback -2.79983 1.09076 0.458212
thorax -3.57863 0.513945 -0.488806
lowerneck -25.4341 0.091019 -0.248915
upperneck 31.5664 -0.93056 4.21155
head 15.3904 0.366339 1.6772
rclavicle 1.03057e-014 -6.26172e-015
rhumerus -37.4404 -16.2229 -71.7553
rradius 20.6504
rwrist 10.2478
rhand -17.3056 19.8951
rfingers 7.12502
rthumb 8.9405 -9.8955
lclavicle 1.03057e-014 -6.26172e-015
lhumerus -33.6044 9.96921 78.1624
lradius 28.4747
lwrist 29.0861
lhand -18.2499 58.6242
lfingers 7.12502
lthumb -171.971 -91.5483
rfemur -9.45761 10.2957 25.0426
rtibia 14.7322
rfoot -10.3801 -28.2888
rtoes -4.114
lfemur -17.7006 -18.0372 -11.1829
ltibia 26.3953
lfoot -15.2346 11.0245
ltoes -36.586
69
root -9.70959 17.6546 2.16241 -1.06127 73.6788 -9.27685
lowerback 1.24994 0.776226 1.55154
upperback -2.80972 1.12067 0.480045
thorax -3.5693 0.53153 -0.42427
lowerneck -25.5528 0.0927304 -0.262076
upperneck 31.8134 -0.868091 4.06421
head 15.5291 0.374046 1.63835
rclavicle 2.02636e-014 -2.09718e-014
rhumerus -37.654 -17.0491 -70.5995
rradius 19.9508
rwrist 11.5502
rhand -17.7137 19.553
rfingers 7.12502
rthumb 8.54659 -10.2541
lclavicle 2.02636e-014 -2.09718e-014
lhumerus -33.5108 10.3742 77.7118
lradius 28.5451
lwrist 29.106
lhand -18.3173 58.6412
lfingers 7.12502
lthumb -172.036 -91.5288
rfemur -9.72743 10.1824 24.9604
rtibia 14.9404
rfoot -10.6524 -28.3799
rtoes -3.64525
lfemur -17.9154 -18.0918 -11.1776
ltibia 26.3428
lfoot -15.2213 10.9802
ltoes -36.5013
70
root -9.7176 17.6538 2.16154 -0.932403 73.8683 -9.26868
lowerback 1.22512 0.799652 1.55534
upperback -2.81406 1.15263 0.501137
thorax -3.55955 0.547891 -0.405709
lowerneck -25.7076 0.112186 -0.231503
upperneck 32.0613 -0.790006 3.89324
head 15.6767 0.389903 1.5851
rclavicle 1.77477e-014 -1.11319e-014
rhumerus -37.9893 -18.1358 -69.2749
rradius 19.3692
rwrist 13.005
rhand -18.0476 19.3756
rfingers 7.12502
rthumb 8.22436 -10.4444
lclavicle 1.77477e-014 -1.11319e-014
lhumerus -33.469 10.6274 77.3067
lradius 28.7625
lwrist 29.2879
lhand -18.4256 58.949
lfingers 7.12502
lthumb -172.14 -91.2171
rfemur -9.99529 10.0496 24.9155
rtibia 15.156
rfoot -10.825 -28.4725
rtoes -3.84767
lfemur -18.1223 -18.3403 -11.1085
ltibia 26.2909
lfoot -15.3276 11.115
ltoes -36.4186
71
root -9.7259 17.6525 2.15955 -0.965499 74.0983 -9.40079
lowerback 1.23317 0.792441 1.62975
upperback -2.80695 1.14647 0.531036
thorax -3.55616 0.543332 -0.416419
lowerneck -25.7609 0.133928 -0.263778
upperneck 32.1485 -0.731233 3.86415
head 15.728 0.407923 1.59356
rclavicle 6.33937e-015 5.46658e-015
rhumerus -38.3802 -19.4956 -67.7678
rradius 18.8225
rwrist 14.5337
rhand -18.5639 18.808
rfingers 7.12502
rthumb 7.72613 -11.0308
lclavicle 6.33937e-015 5.46658e-015
lhumerus -33.5991 10.9108 76.8573
lradius 29.2496
lwrist 29.2914
lhand -18.3273 59.2151
lfingers 7.12502
lthumb -172.046 -90.9546
rfemur -10.2227 9.86469 24.9125
rtibia 15.3498
rfoot -11.0039 -28.5441
rtoes -3.74989
lfemur -18.3095 -18.7278 -10.9904
ltibia 26.2388
lfoot -15.5313 11.3589
ltoes -36.6782
72
root -9.73443 17.6515 2.15753 -1.03771 74.3359 -9.5657
lowerback 1.23913 0.779722 1.71064
upperback -2.78305 1.13358 0.586923
thorax -3.53477 0.535831 -0.403566
lowerneck -25.7316 0.165159 -0.194187
upperneck 32.1405 -0.627722 3.6314
head 15.7119 0.423537 1.50218
rclavicle -5.49484e-014 -1.02871e-014
rhumerus -38.7853 -20.9428 -66.1363
rradius 18.3368
rwrist 15.8856
rhand -18.9898 18.2784
rfingers 7.12502
rthumb 7.31503 -11.5752
lclavicle -5.49484e-014 -1.02871e-014
lhumerus -33.7843 11.1652 76.4735
lradius 29.8533
lwrist 29.5178
lhand -18.4872 59.3615
lfingers 7.12502
lthumb -172.2 -90.8024
rfemur -10.4082 9.66664 24.9188
rtibia 15.4776
rfoot -11.2551 -28.5874
rtoes -3.07369
lfemur -18.4925 -18.9411 -10.8857
ltibia 26.1919
lfoot -15.7337 11.3997
ltoes -36.8521
